<svg width="375" height="812" viewBox="0 0 375 812" fill="none" xmlns="http://www.w3.org/2000/svg" aria-label="Health Score Details">
  <rect width="375" height="812" fill="#F7F9F8"/>
  <!-- Topbar -->
  <rect x="0" y="0" width="375" height="56" fill="#FFFFFF" stroke="#E0E6E2"/>
  <rect x="12" y="12" width="32" height="32" rx="8" fill="#EEF5F1"/>
  <rect x="331" y="12" width="32" height="32" rx="8" fill="#EEF5F1"/>
  <text x="28" y="29" font-size="18" fill="#1F2A1F" text-anchor="middle" dominant-baseline="middle">←</text>
  <text x="347" y="28" font-size="16" fill="#1F2A1F" text-anchor="middle" dominant-baseline="middle">⋯</text>
  <text x="188" y="30" font-size="16" fill="#1F2A1F" text-anchor="middle">Dettagli punteggio</text>
  <rect x="24" y="76" width="327" height="220" rx="14" fill="#FFFFFF" stroke="#E0E6E2"/>
  <circle cx="188" cy="186" r="78" fill="#E7EFEA"/>
  <path d="M110 186 A78 78 0 0 1 266 186" stroke="#2E7D5B" stroke-width="12" stroke-linecap="round" fill="none"/>
  <text x="188" y="216" font-size="20" fill="#1F2A1F" text-anchor="middle">78</text>
  <text x="188" y="236" font-size="12" fill="#65756A" text-anchor="middle">Buono</text>
  <rect x="24" y="312" width="327" height="110" rx="14" fill="#FFFFFF" stroke="#E0E6E2"/>
  <rect x="40" y="356" width="200" height="12" rx="6" fill="#DDE6E1"/>
  <rect x="40" y="374" width="294" height="10" rx="5" fill="#E7EFEA"/>
  <rect x="40" y="402" width="210" height="12" rx="6" fill="#DDE6E1"/>
  <rect x="40" y="420" width="278" height="10" rx="5" fill="#E7EFEA"/>
  <text x="40" y="336" font-size="12" fill="#1F2A1F">Come viene calcolato</text>
  <rect x="24" y="462" width="327" height="92" rx="14" fill="#FFFFFF" stroke="#E0E6E2"/>
  <text x="40" y="486" font-size="12" fill="#1F2A1F">Consigli</text>
  <rect x="24" y="566" width="327" height="48" rx="12" fill="#2E7D5B"/>
  <text x="188" y="596" font-size="16" fill="#FFFFFF" text-anchor="middle">Applica suggerimenti</text>
</svg>
